<svg version="1.2" xmlns="http://www.w3.org/2000/svg" xmlns:xlink="http://www.w3.org/1999/xlink" overflow="visible" preserveAspectRatio="none" viewBox="0 0 9.99998 11.999999999999998" width="9.99998" height="11.999999999999998"><g transform="translate(0, 0)"><g transform="translate(-0.000009999999999926734, 0) rotate(0)"><path d="M2.08886,10.89389c-0.30006,0.33441 -0.78477,0.33441 -1.08482,0c-0.30006,-0.32797 -0.30583,-0.8746 -0.01154,-1.209c0.14426,-0.1672 0.34045,-0.25723 0.54818,-0.25723c0.42123,-0.00643 0.77322,0.37299 0.779,0.84244c0,0.23151 -0.08078,0.46302 -0.23081,0.62379zM4.397,10.89389c-0.30006,0.33441 -0.78477,0.33441 -1.08482,0c-0.30006,-0.33441 -0.30006,-0.8746 0,-1.209c0.30006,-0.33441 0.78477,-0.33441 1.08482,0c0.14426,0.16077 0.22504,0.37942 0.22504,0.6045c0,0.23151 -0.08078,0.45016 -0.23081,0.6045zM2.3139,7.71704c0,0.46945 -0.34622,0.85531 -0.76745,0.85531h-0.00577c-0.42123,0 -0.76745,-0.37942 -0.76745,-0.85531c0,-0.46945 0.34045,-0.85531 0.76745,-0.85531c0.20196,0 0.39815,0.09003 0.54241,0.2508c0.14426,0.16077 0.23081,0.37942 0.22504,0.6045v0zM6.70513,10.89389c-0.30006,0.33441 -0.78477,0.33441 -1.08482,0c-0.30006,-0.33441 -0.30006,-0.8746 0,-1.209c0.30006,-0.33441 0.78477,-0.33441 1.08482,0c0.14426,0.16077 0.22504,0.37942 0.22504,0.6045c0,0.23151 -0.08078,0.45016 -0.23081,0.6045zM4.62204,7.71704c0,0.46945 -0.34045,0.85531 -0.76745,0.85531c-0.42123,0 -0.76745,-0.37942 -0.76745,-0.85531c0,-0.46945 0.34045,-0.85531 0.76745,-0.85531c0.20196,0 0.39815,0.09003 0.54241,0.2508c0.14426,0.16077 0.22504,0.37942 0.22504,0.6045zM2.08886,5.7492c-0.30006,0.33441 -0.78477,0.33441 -1.08482,0c-0.30006,-0.32797 -0.30583,-0.8746 -0.01154,-1.209c0.14426,-0.1672 0.34045,-0.25723 0.54818,-0.25723c0.42123,-0.00643 0.77322,0.37299 0.779,0.84244c0,0.23151 -0.08078,0.46302 -0.23081,0.62379zM6.93017,7.71704c0,0.46945 -0.34045,0.85531 -0.76745,0.85531c-0.42123,0 -0.76745,-0.37942 -0.76745,-0.85531c0,-0.46945 0.34045,-0.85531 0.76745,-0.85531c0.20196,0 0.39815,0.09003 0.54241,0.2508c0.14426,0.16077 0.22504,0.37942 0.22504,0.6045zM4.397,5.7492c-0.30006,0.33441 -0.78477,0.33441 -1.08482,0c-0.30006,-0.33441 -0.30006,-0.8746 0,-1.209c0.30006,-0.33441 0.78477,-0.33441 1.08482,0c0.14426,0.16077 0.22504,0.37942 0.22504,0.6045c0,0.23151 -0.08078,0.45016 -0.23081,0.6045zM9.23831,10.28296c0,0.47588 -0.34622,0.85531 -0.76745,0.85531c-0.427,0 -0.77322,-0.38585 -0.77322,-0.85531v-2.57235c0,-0.47588 0.34622,-0.86174 0.77322,-0.86174c0.427,0 0.76745,0.38585 0.76745,0.86174zM6.70513,5.7492c-0.30006,0.33441 -0.78477,0.33441 -1.08482,0c-0.30006,-0.33441 -0.30006,-0.8746 0,-1.209c0.30006,-0.33441 0.78477,-0.33441 1.08482,0c0.14426,0.16077 0.22504,0.37942 0.22504,0.6045c0,0.23151 -0.08078,0.45016 -0.23081,0.6045zM9.11713,3.29904c-0.07501,0.0836 -0.17311,0.12862 -0.27121,0.12862h-7.68609c-0.2135,-0.00643 -0.38661,-0.19293 -0.38661,-0.43087v-1.71061c0,-0.23794 0.17311,-0.42444 0.38661,-0.43087h7.68609c0.2135,0.00643 0.38084,0.19293 0.38661,0.43087v1.71704c-0.00577,0.10932 -0.04616,0.21865 -0.11541,0.29582zM9.00172,5.7492c-0.30006,0.33441 -0.78477,0.33441 -1.08482,0c-0.30006,-0.33441 -0.30006,-0.8746 0,-1.209c0.30006,-0.33441 0.78477,-0.33441 1.08482,0c0.14426,0.16077 0.22504,0.37942 0.22504,0.6045c0.00577,0.22508 -0.07501,0.44373 -0.22504,0.6045zM9.76918,0.25723c-0.13849,-0.1672 -0.33468,-0.25723 -0.54241,-0.25723h-8.45354c-0.20773,0 -0.40392,0.09003 -0.54241,0.25723c-0.15003,0.15434 -0.23081,0.37299 -0.23081,0.6045v10.28296c0.00577,0.46945 0.34622,0.84887 0.76745,0.85531h8.46508c0.42123,-0.00643 0.76168,-0.38585 0.76745,-0.85531v-10.28939c0,-0.22508 -0.08078,-0.44373 -0.23081,-0.59807z" style="stroke-width: 0; stroke-linecap: butt; stroke-linejoin: miter; fill: rgb(119, 119, 119);" vector-effect="non-scaling-stroke"/></g><defs><path id="path-15986573409411804" d="M2.08886,10.89389c-0.30006,0.33441 -0.78477,0.33441 -1.08482,0c-0.30006,-0.32797 -0.30583,-0.8746 -0.01154,-1.209c0.14426,-0.1672 0.34045,-0.25723 0.54818,-0.25723c0.42123,-0.00643 0.77322,0.37299 0.779,0.84244c0,0.23151 -0.08078,0.46302 -0.23081,0.62379zM4.397,10.89389c-0.30006,0.33441 -0.78477,0.33441 -1.08482,0c-0.30006,-0.33441 -0.30006,-0.8746 0,-1.209c0.30006,-0.33441 0.78477,-0.33441 1.08482,0c0.14426,0.16077 0.22504,0.37942 0.22504,0.6045c0,0.23151 -0.08078,0.45016 -0.23081,0.6045zM2.3139,7.71704c0,0.46945 -0.34622,0.85531 -0.76745,0.85531h-0.00577c-0.42123,0 -0.76745,-0.37942 -0.76745,-0.85531c0,-0.46945 0.34045,-0.85531 0.76745,-0.85531c0.20196,0 0.39815,0.09003 0.54241,0.2508c0.14426,0.16077 0.23081,0.37942 0.22504,0.6045v0zM6.70513,10.89389c-0.30006,0.33441 -0.78477,0.33441 -1.08482,0c-0.30006,-0.33441 -0.30006,-0.8746 0,-1.209c0.30006,-0.33441 0.78477,-0.33441 1.08482,0c0.14426,0.16077 0.22504,0.37942 0.22504,0.6045c0,0.23151 -0.08078,0.45016 -0.23081,0.6045zM4.62204,7.71704c0,0.46945 -0.34045,0.85531 -0.76745,0.85531c-0.42123,0 -0.76745,-0.37942 -0.76745,-0.85531c0,-0.46945 0.34045,-0.85531 0.76745,-0.85531c0.20196,0 0.39815,0.09003 0.54241,0.2508c0.14426,0.16077 0.22504,0.37942 0.22504,0.6045zM2.08886,5.7492c-0.30006,0.33441 -0.78477,0.33441 -1.08482,0c-0.30006,-0.32797 -0.30583,-0.8746 -0.01154,-1.209c0.14426,-0.1672 0.34045,-0.25723 0.54818,-0.25723c0.42123,-0.00643 0.77322,0.37299 0.779,0.84244c0,0.23151 -0.08078,0.46302 -0.23081,0.62379zM6.93017,7.71704c0,0.46945 -0.34045,0.85531 -0.76745,0.85531c-0.42123,0 -0.76745,-0.37942 -0.76745,-0.85531c0,-0.46945 0.34045,-0.85531 0.76745,-0.85531c0.20196,0 0.39815,0.09003 0.54241,0.2508c0.14426,0.16077 0.22504,0.37942 0.22504,0.6045zM4.397,5.7492c-0.30006,0.33441 -0.78477,0.33441 -1.08482,0c-0.30006,-0.33441 -0.30006,-0.8746 0,-1.209c0.30006,-0.33441 0.78477,-0.33441 1.08482,0c0.14426,0.16077 0.22504,0.37942 0.22504,0.6045c0,0.23151 -0.08078,0.45016 -0.23081,0.6045zM9.23831,10.28296c0,0.47588 -0.34622,0.85531 -0.76745,0.85531c-0.427,0 -0.77322,-0.38585 -0.77322,-0.85531v-2.57235c0,-0.47588 0.34622,-0.86174 0.77322,-0.86174c0.427,0 0.76745,0.38585 0.76745,0.86174zM6.70513,5.7492c-0.30006,0.33441 -0.78477,0.33441 -1.08482,0c-0.30006,-0.33441 -0.30006,-0.8746 0,-1.209c0.30006,-0.33441 0.78477,-0.33441 1.08482,0c0.14426,0.16077 0.22504,0.37942 0.22504,0.6045c0,0.23151 -0.08078,0.45016 -0.23081,0.6045zM9.11713,3.29904c-0.07501,0.0836 -0.17311,0.12862 -0.27121,0.12862h-7.68609c-0.2135,-0.00643 -0.38661,-0.19293 -0.38661,-0.43087v-1.71061c0,-0.23794 0.17311,-0.42444 0.38661,-0.43087h7.68609c0.2135,0.00643 0.38084,0.19293 0.38661,0.43087v1.71704c-0.00577,0.10932 -0.04616,0.21865 -0.11541,0.29582zM9.00172,5.7492c-0.30006,0.33441 -0.78477,0.33441 -1.08482,0c-0.30006,-0.33441 -0.30006,-0.8746 0,-1.209c0.30006,-0.33441 0.78477,-0.33441 1.08482,0c0.14426,0.16077 0.22504,0.37942 0.22504,0.6045c0.00577,0.22508 -0.07501,0.44373 -0.22504,0.6045zM9.76918,0.25723c-0.13849,-0.1672 -0.33468,-0.25723 -0.54241,-0.25723h-8.45354c-0.20773,0 -0.40392,0.09003 -0.54241,0.25723c-0.15003,0.15434 -0.23081,0.37299 -0.23081,0.6045v10.28296c0.00577,0.46945 0.34622,0.84887 0.76745,0.85531h8.46508c0.42123,-0.00643 0.76168,-0.38585 0.76745,-0.85531v-10.28939c0,-0.22508 -0.08078,-0.44373 -0.23081,-0.59807z" vector-effect="non-scaling-stroke"/></defs></g></svg>