<svg version="1.2" xmlns="http://www.w3.org/2000/svg" xmlns:xlink="http://www.w3.org/1999/xlink" overflow="visible" preserveAspectRatio="none" viewBox="0 0 50 14" width="50" height="14"><g transform="translate(1, 1)"><defs><path id="path-1598534342025490" d="M1583 149 C1589 144 1589 148 1589 148 C1589 148 1590 143 1590 143 C1590 143 1596 140 1596 140 C1596 140 1599 145 1599 145 C1599 145 1606 141 1606 141 C1606 141 1608 147 1608 147 C1608 147 1612 152 1612 152 C1612 152 1616 148 1616 148 C1616 148 1620 143 1620 143 C1620 143 1625 146 1625 146 C1625 146 1631 141 1631 141" vector-effect="non-scaling-stroke"/></defs><g transform="translate(-1583, -140)"><path d="M1583 149 C1589 144 1589 148 1589 148 C1589 148 1590 143 1590 143 C1590 143 1596 140 1596 140 C1596 140 1599 145 1599 145 C1599 145 1606 141 1606 141 C1606 141 1608 147 1608 147 C1608 147 1612 152 1612 152 C1612 152 1616 148 1616 148 C1616 148 1620 143 1620 143 C1620 143 1625 146 1625 146 C1625 146 1631 141 1631 141" style="stroke: rgb(29, 155, 50); stroke-width: 1; stroke-linecap: butt; stroke-linejoin: miter; fill: none;" vector-effect="non-scaling-stroke"/></g></g></svg>