<svg version="1.2" xmlns="http://www.w3.org/2000/svg" xmlns:xlink="http://www.w3.org/1999/xlink" overflow="visible" preserveAspectRatio="none" viewBox="0 0 12.000000000000002 7.9999899999999995" width="12.000000000000002" height="7.9999899999999995"><g transform="translate(0, 0)"><g transform="translate(9.020562075079397e-16, 5.551115123125783e-17) rotate(0)"><path d="M3.73476,6.22857c-1.17433,-0.47429 -2.16898,-1.25143 -2.85561,-2.22857c0.62888,-0.89143 1.51444,-1.62286 2.56684,-2.10286c-0.77005,1.18286 -0.41711,2.69143 0.82781,3.49143zM6.33369,1.71429c0,0.16 -0.14118,0.28571 -0.32086,0.28571c-0.77005,0 -1.39251,0.55429 -1.39251,1.24c0,0.16 -0.14118,0.28571 -0.32086,0.28571c-0.17968,0 -0.32086,-0.12571 -0.32086,-0.28571c0.00642,-1 0.91123,-1.80571 2.03422,-1.81143c0.17968,0 0.32086,0.12571 0.32086,0.28571zM8.75936,0.57143c0,-0.06857 -0.04492,-0.12571 -0.10909,-0.16l-0.12834,-0.06857l-0.21176,-0.10857l-0.21818,-0.10857l-0.20535,-0.09143c-0.0385,-0.01714 -0.07701,-0.02857 -0.12193,-0.03429c-0.07701,0 -0.14759,0.03429 -0.1861,0.09714l-0.35936,0.57143c-0.39786,-0.06286 -0.80214,-0.09714 -1.20642,-0.09714c-1.16791,-0.00571 -2.31016,0.27429 -3.31123,0.81143c-1.03316,0.54857 -1.9123,1.30286 -2.56684,2.20571c-0.17968,0.25143 -0.17968,0.57143 0,0.82286c0.39144,0.53714 0.85348,1.02857 1.39251,1.45714c0.5262,0.42286 1.11658,0.76571 1.75829,1.02857c-0.12193,0.16 -0.2246,0.33714 -0.29519,0.52c0,0.06857 0.0385,0.13143 0.10909,0.16571c0.29519,0.16571 0.60321,0.30286 0.92406,0.41714c0.07701,0 0.14759,-0.03429 0.1861,-0.09714l0.32727,-0.53143l2.11765,-3.37143l2.11123,-3.37143c0.00642,-0.01714 0.00642,-0.03429 0,-0.05143v0zM9.00963,3.22857c0,-0.16571 -0.01925,-0.33143 -0.05134,-0.49714l-1.8738,2.98286c1.15508,-0.39429 1.92513,-1.38286 1.92513,-2.48571zM12,4c0,-0.14286 -0.05134,-0.28571 -0.13476,-0.41143c-0.26952,-0.4 -0.59679,-0.76571 -0.96257,-1.09714c-0.37219,-0.33714 -0.77647,-0.64571 -1.21925,-0.90857l-0.42353,0.66857c0.75722,0.46286 1.39251,1.05714 1.88663,1.74857c-0.51979,0.73143 -1.20642,1.35429 -2.01497,1.82857c-0.78289,0.46857 -1.6877,0.74857 -2.6246,0.81714l-0.49412,0.78286c0.96898,0 1.93155,-0.19429 2.80428,-0.57143c0.89198,-0.37714 1.68128,-0.92 2.32941,-1.58286c0.26952,-0.26857 0.50695,-0.56 0.72513,-0.86286c0.08342,-0.12571 0.12834,-0.26857 0.12834,-0.41143z" style="stroke-width: 0; stroke-linecap: butt; stroke-linejoin: miter; fill: rgb(119, 119, 119);" vector-effect="non-scaling-stroke"/></g><defs><path id="path-15986573409191752" d="M3.73476,6.22857c-1.17433,-0.47429 -2.16898,-1.25143 -2.85561,-2.22857c0.62888,-0.89143 1.51444,-1.62286 2.56684,-2.10286c-0.77005,1.18286 -0.41711,2.69143 0.82781,3.49143zM6.33369,1.71429c0,0.16 -0.14118,0.28571 -0.32086,0.28571c-0.77005,0 -1.39251,0.55429 -1.39251,1.24c0,0.16 -0.14118,0.28571 -0.32086,0.28571c-0.17968,0 -0.32086,-0.12571 -0.32086,-0.28571c0.00642,-1 0.91123,-1.80571 2.03422,-1.81143c0.17968,0 0.32086,0.12571 0.32086,0.28571zM8.75936,0.57143c0,-0.06857 -0.04492,-0.12571 -0.10909,-0.16l-0.12834,-0.06857l-0.21176,-0.10857l-0.21818,-0.10857l-0.20535,-0.09143c-0.0385,-0.01714 -0.07701,-0.02857 -0.12193,-0.03429c-0.07701,0 -0.14759,0.03429 -0.1861,0.09714l-0.35936,0.57143c-0.39786,-0.06286 -0.80214,-0.09714 -1.20642,-0.09714c-1.16791,-0.00571 -2.31016,0.27429 -3.31123,0.81143c-1.03316,0.54857 -1.9123,1.30286 -2.56684,2.20571c-0.17968,0.25143 -0.17968,0.57143 0,0.82286c0.39144,0.53714 0.85348,1.02857 1.39251,1.45714c0.5262,0.42286 1.11658,0.76571 1.75829,1.02857c-0.12193,0.16 -0.2246,0.33714 -0.29519,0.52c0,0.06857 0.0385,0.13143 0.10909,0.16571c0.29519,0.16571 0.60321,0.30286 0.92406,0.41714c0.07701,0 0.14759,-0.03429 0.1861,-0.09714l0.32727,-0.53143l2.11765,-3.37143l2.11123,-3.37143c0.00642,-0.01714 0.00642,-0.03429 0,-0.05143v0zM9.00963,3.22857c0,-0.16571 -0.01925,-0.33143 -0.05134,-0.49714l-1.8738,2.98286c1.15508,-0.39429 1.92513,-1.38286 1.92513,-2.48571zM12,4c0,-0.14286 -0.05134,-0.28571 -0.13476,-0.41143c-0.26952,-0.4 -0.59679,-0.76571 -0.96257,-1.09714c-0.37219,-0.33714 -0.77647,-0.64571 -1.21925,-0.90857l-0.42353,0.66857c0.75722,0.46286 1.39251,1.05714 1.88663,1.74857c-0.51979,0.73143 -1.20642,1.35429 -2.01497,1.82857c-0.78289,0.46857 -1.6877,0.74857 -2.6246,0.81714l-0.49412,0.78286c0.96898,0 1.93155,-0.19429 2.80428,-0.57143c0.89198,-0.37714 1.68128,-0.92 2.32941,-1.58286c0.26952,-0.26857 0.50695,-0.56 0.72513,-0.86286c0.08342,-0.12571 0.12834,-0.26857 0.12834,-0.41143z" vector-effect="non-scaling-stroke"/></defs></g></svg>