<svg version="1.2" xmlns="http://www.w3.org/2000/svg" xmlns:xlink="http://www.w3.org/1999/xlink" overflow="visible" preserveAspectRatio="none" viewBox="0 0 11.999995000000002 8" width="11.999995000000002" height="8"><g transform="translate(0, 0)"><g transform="translate(0.000005000000000837668, -3.3306690738754696e-16) rotate(0)"><path d="M11.14469,4c-0.56592,0.92038 -1.33119,1.70071 -2.23151,2.26761c-1.78135,1.1138 -4.00643,1.1138 -5.78778,0c-0.91318,-0.5669 -1.69132,-1.34056 -2.2701,-2.26761c0.63022,-1.04043 1.51768,-1.89412 2.57235,-2.45436c-0.2701,0.47353 -0.41158,1.01376 -0.41158,1.56065c0,1.71405 1.33119,3.10129 2.98392,3.11463c1.65273,-0.00667 2.99035,-1.39391 2.99678,-3.10796c0,-0.55356 -0.14791,-1.09379 -0.42444,-1.56732c1.05466,0.56023 1.94212,1.41392 2.57235,2.45436zM6.32154,1.33222c0,0.18674 -0.14148,0.33347 -0.32154,0.33347c-0.7717,0 -1.3955,0.64694 -1.3955,1.44727c0,0.18674 -0.14148,0.33347 -0.32154,0.33347c-0.18006,0 -0.32154,-0.14673 -0.32154,-0.33347c0.00643,-1.16715 0.91318,-2.10754 2.03858,-2.11421c0.18006,0 0.32154,0.14673 0.32154,0.33347zM11.99999,4c-0.00643,-0.16674 -0.05145,-0.33347 -0.13505,-0.4802c-0.62379,-1.05377 -1.48553,-1.93414 -2.5209,-2.5544c-2.05788,-1.2872 -4.63022,-1.2872 -6.6881,0c-1.03537,0.62026 -1.89711,1.50063 -2.5209,2.5544c-0.18006,0.29346 -0.18006,0.66694 0,0.9604c0.62379,1.05377 1.48553,1.93414 2.5209,2.5544c2.05788,1.2872 4.63022,1.2872 6.6881,0c1.03537,-0.62026 1.90354,-1.50063 2.5209,-2.56107c0.0836,-0.14006 0.12862,-0.30679 0.13505,-0.47353z" style="stroke-width: 0; stroke-linecap: butt; stroke-linejoin: miter; fill: rgb(119, 119, 119);" vector-effect="non-scaling-stroke"/></g><defs><path id="path-15986573406191426" d="M11.14469,4c-0.56592,0.92038 -1.33119,1.70071 -2.23151,2.26761c-1.78135,1.1138 -4.00643,1.1138 -5.78778,0c-0.91318,-0.5669 -1.69132,-1.34056 -2.2701,-2.26761c0.63022,-1.04043 1.51768,-1.89412 2.57235,-2.45436c-0.2701,0.47353 -0.41158,1.01376 -0.41158,1.56065c0,1.71405 1.33119,3.10129 2.98392,3.11463c1.65273,-0.00667 2.99035,-1.39391 2.99678,-3.10796c0,-0.55356 -0.14791,-1.09379 -0.42444,-1.56732c1.05466,0.56023 1.94212,1.41392 2.57235,2.45436zM6.32154,1.33222c0,0.18674 -0.14148,0.33347 -0.32154,0.33347c-0.7717,0 -1.3955,0.64694 -1.3955,1.44727c0,0.18674 -0.14148,0.33347 -0.32154,0.33347c-0.18006,0 -0.32154,-0.14673 -0.32154,-0.33347c0.00643,-1.16715 0.91318,-2.10754 2.03858,-2.11421c0.18006,0 0.32154,0.14673 0.32154,0.33347zM11.99999,4c-0.00643,-0.16674 -0.05145,-0.33347 -0.13505,-0.4802c-0.62379,-1.05377 -1.48553,-1.93414 -2.5209,-2.5544c-2.05788,-1.2872 -4.63022,-1.2872 -6.6881,0c-1.03537,0.62026 -1.89711,1.50063 -2.5209,2.5544c-0.18006,0.29346 -0.18006,0.66694 0,0.9604c0.62379,1.05377 1.48553,1.93414 2.5209,2.5544c2.05788,1.2872 4.63022,1.2872 6.6881,0c1.03537,-0.62026 1.90354,-1.50063 2.5209,-2.56107c0.0836,-0.14006 0.12862,-0.30679 0.13505,-0.47353z" vector-effect="non-scaling-stroke"/></defs></g></svg>