<svg version="1.2" xmlns="http://www.w3.org/2000/svg" xmlns:xlink="http://www.w3.org/1999/xlink" overflow="visible" preserveAspectRatio="none" viewBox="0 0 12.25 10.5" width="12.25" height="10.5"><g transform="translate(0, 0)"><g transform="translate(0, 0) rotate(0)"><path d="M7,0c-2.89917,0 -5.25,2.35083 -5.25,5.25h-1.75l2.26917,2.26917l0.04083,0.08167l2.35667,-2.35083h-1.75c0,-2.2575 1.82583,-4.08333 4.08333,-4.08333c2.2575,0 4.08333,1.82583 4.08333,4.08333c0,2.2575 -1.82583,4.08333 -4.08333,4.08333c-1.12583,0 -2.14667,-0.46083 -2.88167,-1.20167l-0.82833,0.82833c0.95083,0.95083 2.2575,1.54 3.71,1.54c2.89917,0 5.25,-2.35083 5.25,-5.25c0,-2.89917 -2.35083,-5.25 -5.25,-5.25zM6.41667,2.91667v2.91667l2.49667,1.48167l0.42,-0.70583l-2.04167,-1.21333v-2.47917z" style="stroke-width: 0; stroke-linecap: butt; stroke-linejoin: miter; fill: rgb(119, 119, 119);" vector-effect="non-scaling-stroke"/></g><defs><path id="path-15986573409201755" d="M7,0c-2.89917,0 -5.25,2.35083 -5.25,5.25h-1.75l2.26917,2.26917l0.04083,0.08167l2.35667,-2.35083h-1.75c0,-2.2575 1.82583,-4.08333 4.08333,-4.08333c2.2575,0 4.08333,1.82583 4.08333,4.08333c0,2.2575 -1.82583,4.08333 -4.08333,4.08333c-1.12583,0 -2.14667,-0.46083 -2.88167,-1.20167l-0.82833,0.82833c0.95083,0.95083 2.2575,1.54 3.71,1.54c2.89917,0 5.25,-2.35083 5.25,-5.25c0,-2.89917 -2.35083,-5.25 -5.25,-5.25zM6.41667,2.91667v2.91667l2.49667,1.48167l0.42,-0.70583l-2.04167,-1.21333v-2.47917z" vector-effect="non-scaling-stroke"/></defs></g></svg>