<svg version="1.2" xmlns="http://www.w3.org/2000/svg" xmlns:xlink="http://www.w3.org/1999/xlink" overflow="visible" preserveAspectRatio="none" viewBox="0 0 11.348296845213264 11.66666" width="11.348296845213264" height="11.66666"><g transform="translate(0, 0)"><g transform="translate(-0.000008874990094930013, -1.5825920714601244e-7) rotate(1.021592549463378)"><path d="M10.00961,6.405c0.02333,-0.18667 0.04083,-0.37333 0.04083,-0.57167c0,-0.19833 -0.0175,-0.385 -0.04083,-0.57167l1.23083,-0.9625c0.11083,-0.0875 0.14,-0.245 0.07,-0.37333l-1.16667,-2.01833c-0.07,-0.12833 -0.2275,-0.175 -0.35583,-0.12833l-1.4525,0.58333c-0.30333,-0.23333 -0.63,-0.42583 -0.98583,-0.57167l-0.22167,-1.54583c-0.0175,-0.14 -0.14,-0.245 -0.28583,-0.245h-2.33333c-0.14583,0 -0.26833,0.105 -0.28583,0.245l-0.22167,1.54583c-0.35583,0.14583 -0.6825,0.34417 -0.98583,0.57167l-1.4525,-0.58333c-0.13417,-0.0525 -0.28583,0 -0.35583,0.12833l-1.16667,2.01833c-0.07583,0.12833 -0.04083,0.28583 0.07,0.37333l1.23083,0.9625c-0.02333,0.18667 -0.04083,0.37917 -0.04083,0.57167c0,0.1925 0.0175,0.385 0.04083,0.57167l-1.23083,0.9625c-0.11083,0.0875 -0.14,0.245 -0.07,0.37333l1.16667,2.01833c0.07,0.12833 0.2275,0.175 0.35583,0.12833l1.4525,-0.58333c0.30333,0.23333 0.63,0.42583 0.98583,0.57167l0.22167,1.54583c0.0175,0.14 0.14,0.245 0.28583,0.245h2.33333c0.14583,0 0.26833,-0.105 0.28583,-0.245l0.22167,-1.54583c0.35583,-0.14583 0.6825,-0.34417 0.98583,-0.57167l1.4525,0.58333c0.13417,0.0525 0.28583,0 0.35583,-0.12833l1.16667,-2.01833c0.07,-0.12833 0.04083,-0.28583 -0.07,-0.37333zM5.67544,7.875c-1.12583,0 -2.04167,-0.91583 -2.04167,-2.04167c0,-1.12583 0.91583,-2.04167 2.04167,-2.04167c1.12583,0 2.04167,0.91583 2.04167,2.04167c0,1.12583 -0.91583,2.04167 -2.04167,2.04167z" style="stroke-width: 0; stroke-linecap: butt; stroke-linejoin: miter; fill: rgb(119, 119, 119);" vector-effect="non-scaling-stroke"/></g><defs><path id="path-15985343431451590" d="M10.00961,6.405c0.02333,-0.18667 0.04083,-0.37333 0.04083,-0.57167c0,-0.19833 -0.0175,-0.385 -0.04083,-0.57167l1.23083,-0.9625c0.11083,-0.0875 0.14,-0.245 0.07,-0.37333l-1.16667,-2.01833c-0.07,-0.12833 -0.2275,-0.175 -0.35583,-0.12833l-1.4525,0.58333c-0.30333,-0.23333 -0.63,-0.42583 -0.98583,-0.57167l-0.22167,-1.54583c-0.0175,-0.14 -0.14,-0.245 -0.28583,-0.245h-2.33333c-0.14583,0 -0.26833,0.105 -0.28583,0.245l-0.22167,1.54583c-0.35583,0.14583 -0.6825,0.34417 -0.98583,0.57167l-1.4525,-0.58333c-0.13417,-0.0525 -0.28583,0 -0.35583,0.12833l-1.16667,2.01833c-0.07583,0.12833 -0.04083,0.28583 0.07,0.37333l1.23083,0.9625c-0.02333,0.18667 -0.04083,0.37917 -0.04083,0.57167c0,0.1925 0.0175,0.385 0.04083,0.57167l-1.23083,0.9625c-0.11083,0.0875 -0.14,0.245 -0.07,0.37333l1.16667,2.01833c0.07,0.12833 0.2275,0.175 0.35583,0.12833l1.4525,-0.58333c0.30333,0.23333 0.63,0.42583 0.98583,0.57167l0.22167,1.54583c0.0175,0.14 0.14,0.245 0.28583,0.245h2.33333c0.14583,0 0.26833,-0.105 0.28583,-0.245l0.22167,-1.54583c0.35583,-0.14583 0.6825,-0.34417 0.98583,-0.57167l1.4525,0.58333c0.13417,0.0525 0.28583,0 0.35583,-0.12833l1.16667,-2.01833c0.07,-0.12833 0.04083,-0.28583 -0.07,-0.37333zM5.67544,7.875c-1.12583,0 -2.04167,-0.91583 -2.04167,-2.04167c0,-1.12583 0.91583,-2.04167 2.04167,-2.04167c1.12583,0 2.04167,0.91583 2.04167,2.04167c0,1.12583 -0.91583,2.04167 -2.04167,2.04167z" vector-effect="non-scaling-stroke"/></defs></g></svg>