<svg version="1.2" xmlns="http://www.w3.org/2000/svg" xmlns:xlink="http://www.w3.org/1999/xlink" overflow="visible" preserveAspectRatio="none" viewBox="0 0 12 8" width="12" height="8"><g transform="translate(0, 0)"><defs><path id="path-15985343429511399" d="M7.410000000000001 8.464237516869094 C7.410000000000001 8.464237516869094 12 13.408906882591092 12 13.408906882591092 C12 13.408906882591092 16.590000000000003 8.464237516869094 16.590000000000003 8.464237516869094 C16.590000000000003 8.464237516869094 18 9.986504723346828 18 9.986504723346828 C18 9.986504723346828 12 16.464237516869094 12 16.464237516869094 C12 16.464237516869094 6 9.986504723346828 6 9.986504723346828 C6 9.986504723346828 7.410000000000001 8.464237516869094 7.410000000000001 8.464237516869094 Z" vector-effect="non-scaling-stroke"/></defs><g transform="translate(-6, -8.464237516869094)"><path d="M7.410000000000001 8.464237516869094 C7.410000000000001 8.464237516869094 12 13.408906882591092 12 13.408906882591092 C12 13.408906882591092 16.590000000000003 8.464237516869094 16.590000000000003 8.464237516869094 C16.590000000000003 8.464237516869094 18 9.986504723346828 18 9.986504723346828 C18 9.986504723346828 12 16.464237516869094 12 16.464237516869094 C12 16.464237516869094 6 9.986504723346828 6 9.986504723346828 C6 9.986504723346828 7.410000000000001 8.464237516869094 7.410000000000001 8.464237516869094 Z" style="stroke-width: 0; stroke-linecap: butt; stroke-linejoin: miter; fill: rgb(119, 119, 119);" vector-effect="non-scaling-stroke"/></g></g></svg>